<?xml version="1.0" standalone="yes"?>

<svg version="1.1" viewBox="0.0 0.0 608.0 599.0" fill="none" stroke="none" stroke-linecap="square" stroke-miterlimit="10" xmlns="http://www.w3.org/2000/svg" xmlns:xlink="http://www.w3.org/1999/xlink"><clipPath id="p.0"><path d="m0 0l608.0 0l0 599.0l-608.0 0l0 -599.0z" clip-rule="nonzero"></path></clipPath><g clip-path="url(#p.0)"><path fill="#000000" fill-opacity="0.0" d="m0 0l608.0 0l0 599.0l-608.0 0z" fill-rule="nonzero"></path><path fill="#10c305" d="m202.15092 112.99344l0 0c0 -18.737091 15.189407 -33.926506 33.9265 -33.926506l135.70605 0l0 0c8.997864 0 17.627197 3.5743866 23.989655 9.936844c6.3624573 6.3624496 9.936829 14.991791 9.936829 23.989662l0 371.01312c0 18.737091 -15.189392 33.926483 -33.926483 33.926483l-135.70605 0c-18.737091 0 -33.9265 -15.189392 -33.9265 -33.926483z" fill-rule="nonzero"></path><path stroke="#000000" stroke-width="8.0" stroke-linejoin="round" stroke-linecap="butt" d="m202.15092 112.99344l0 0c0 -18.737091 15.189407 -33.926506 33.9265 -33.926506l135.70605 0l0 0c8.997864 0 17.627197 3.5743866 23.989655 9.936844c6.3624573 6.3624496 9.936829 14.991791 9.936829 23.989662l0 371.01312c0 18.737091 -15.189392 33.926483 -33.926483 33.926483l-135.70605 0c-18.737091 0 -33.9265 -15.189392 -33.9265 -33.926483z" fill-rule="nonzero"></path><path fill="#000000" d="m202.15092 275.3504l0 -56.708664l0 0c0 -31.319336 45.666946 -56.708664 101.999985 -56.708664c56.33307 0 102.0 25.389328 102.0 56.708664l0 56.708664z" fill-rule="nonzero"></path><path stroke="#000000" stroke-width="8.0" stroke-linejoin="round" stroke-linecap="butt" d="m202.15092 275.3504l0 -56.708664l0 0c0 -31.319336 45.666946 -56.708664 101.999985 -56.708664c56.33307 0 102.0 25.389328 102.0 56.708664l0 56.708664z" fill-rule="nonzero"></path><path fill="#000000" fill-opacity="0.0" d="m353.1273 79.92257l52.59842 45.007874" fill-rule="nonzero"></path><path stroke="#000000" stroke-width="8.0" stroke-linejoin="round" stroke-linecap="butt" d="m353.1273 79.92257l52.59842 45.007874" fill-rule="nonzero"></path><path fill="#ff0000" d="m262.1717 513.0c-7.9241486 7.145691 -39.672043 1.0 -48.370193 -8.0c-8.698151 -9.0 -11.742859 -38.85434 -3.818695 -46.0c7.924164 -7.1456604 42.665527 -5.8740234 51.363693 3.1259766c8.698151 9.0 8.749359 43.728363 0.8251953 50.874023z" fill-rule="nonzero"></path><path fill="#ff0000" d="m352.8195 511.0c6.241699 6.9711304 32.55002 1.5 40.6875 -7.0c8.137512 -8.5 14.379211 -37.02887 8.137512 -44.0c-6.241699 -6.9711304 -37.450195 -6.326782 -45.587708 2.1732178c-8.137482 8.5 -9.479004 41.85565 -3.2373047 48.826782z" fill-rule="nonzero"></path><path fill="#000000" d="m270.48718 517.9344l66.886536 0c4.0152283 0 7.8659973 -1.5950317 10.70517 -4.434265c2.839203 -2.8391724 4.4342346 -6.6899414 4.4342346 -10.705139l0 -75.69525c0 -4.272461E-4 -3.6621094E-4 -7.9345703E-4 -8.239746E-4 -7.9345703E-4l-97.164536 7.9345703E-4l0 0c-4.4250488E-4 0 -8.087158E-4 3.6621094E-4 -8.087158E-4 8.239746E-4l8.087158E-4 75.69443l0 0c0 8.361267 6.7781525 15.139404 15.13942 15.139404z" fill-rule="nonzero"></path><path stroke="#000000" stroke-width="8.0" stroke-linejoin="round" stroke-linecap="butt" d="m270.48718 517.9344l66.886536 0c4.0152283 0 7.8659973 -1.5950317 10.70517 -4.434265c2.839203 -2.8391724 4.4342346 -6.6899414 4.4342346 -10.705139l0 -75.69525c0 -4.272461E-4 -3.6621094E-4 -7.9345703E-4 -8.239746E-4 -7.9345703E-4l-97.164536 7.9345703E-4l0 0c-4.4250488E-4 0 -8.087158E-4 3.6621094E-4 -8.087158E-4 8.239746E-4l8.087158E-4 75.69443l0 0c0 8.361267 6.7781525 15.139404 15.13942 15.139404z" fill-rule="nonzero"></path><path fill="#000000" fill-opacity="0.0" d="m254.44489 79.92257l-52.598434 45.007874" fill-rule="nonzero"></path><path stroke="#000000" stroke-width="8.0" stroke-linejoin="round" stroke-linecap="butt" d="m254.44489 79.92257l-52.598434 45.007874" fill-rule="nonzero"></path><path fill="#10c305" d="m449.99982 227.28348l0 33.396027c0 1.9449768 -0.77264404 3.8102722 -2.1479492 5.1855774c-1.3752747 1.3752747 -3.24057 2.1479187 -5.185547 2.1479187l-36.666504 0c-2.4414062E-4 0 -3.9672852E-4 -1.8310547E-4 -3.9672852E-4 -3.9672852E-4l3.9672852E-4 -48.062607l0 0c0 -2.1362305E-4 1.8310547E-4 -3.9672852E-4 3.9672852E-4 -3.9672852E-4l36.666107 3.9672852E-4l0 0c4.050171 0 7.333496 3.28331 7.333496 7.333481z" fill-rule="nonzero"></path><path stroke="#000000" stroke-width="8.0" stroke-linejoin="round" stroke-linecap="butt" d="m449.99982 227.28348l0 33.396027c0 1.9449768 -0.77264404 3.8102722 -2.1479492 5.1855774c-1.3752747 1.3752747 -3.24057 2.1479187 -5.185547 2.1479187l-36.666504 0c-2.4414062E-4 0 -3.9672852E-4 -1.8310547E-4 -3.9672852E-4 -3.9672852E-4l3.9672852E-4 -48.062607l0 0c0 -2.1362305E-4 1.8310547E-4 -3.9672852E-4 3.9672852E-4 -3.9672852E-4l36.666107 3.9672852E-4l0 0c4.050171 0 7.333496 3.28331 7.333496 7.333481z" fill-rule="nonzero"></path><path fill="#10c305" d="m158.15204 227.28348l0 33.396027c0 1.9449768 0.7726288 3.8102722 2.1479187 5.1855774c1.3753052 1.3752747 3.2406006 2.1479187 5.185562 2.1479187l36.66652 0c2.1362305E-4 0 3.9672852E-4 -1.8310547E-4 3.9672852E-4 -3.9672852E-4l-3.9672852E-4 -48.062607l0 0c0 -2.1362305E-4 -1.8310547E-4 -3.9672852E-4 -3.9672852E-4 -3.9672852E-4l-36.666122 3.9672852E-4l0 0c-4.050171 0 -7.333481 3.28331 -7.333481 7.333481z" fill-rule="nonzero"></path><path stroke="#000000" stroke-width="8.0" stroke-linejoin="round" stroke-linecap="butt" d="m158.15204 227.28348l0 33.396027c0 1.9449768 0.7726288 3.8102722 2.1479187 5.1855774c1.3753052 1.3752747 3.2406006 2.1479187 5.185562 2.1479187l36.66652 0c2.1362305E-4 0 3.9672852E-4 -1.8310547E-4 3.9672852E-4 -3.9672852E-4l-3.9672852E-4 -48.062607l0 0c0 -2.1362305E-4 -1.8310547E-4 -3.9672852E-4 -3.9672852E-4 -3.9672852E-4l-36.666122 3.9672852E-4l0 0c-4.050171 0 -7.333481 3.28331 -7.333481 7.333481z" fill-rule="nonzero"></path></g></svg>

