<?xml version="1.0" standalone="yes"?>

<svg version="1.1" viewBox="0.0 0.0 433.4514435695538 366.34645669291336" fill="none" stroke="none" stroke-linecap="square" stroke-miterlimit="10" xmlns="http://www.w3.org/2000/svg" xmlns:xlink="http://www.w3.org/1999/xlink"><clipPath id="p.0"><path d="m0 0l433.45145 0l0 366.34647l-433.45145 0l0 -366.34647z" clip-rule="nonzero"></path></clipPath><g clip-path="url(#p.0)"><path fill="#000000" fill-opacity="0.0" d="m0 0l433.45145 0l0 366.34647l-433.45145 0z" fill-rule="nonzero"></path><path fill="#0f0cf3" d="m127.15092 183.17323l0 0c0 -48.52278 40.10401 -87.85827 89.57481 -87.85827l0 0c23.756714 0 46.54042 9.256462 63.338943 25.733086c16.798553 16.476624 26.23587 38.823715 26.23587 62.125183l0 0c0 48.52278 -40.104004 87.85826 -89.574814 87.85826l0 0c-49.470795 0 -89.57481 -39.33548 -89.57481 -87.85826z" fill-rule="nonzero"></path><path stroke="#000000" stroke-width="1.0" stroke-linejoin="round" stroke-linecap="butt" d="m127.15092 183.17323l0 0c0 -48.52278 40.10401 -87.85827 89.57481 -87.85827l0 0c23.756714 0 46.54042 9.256462 63.338943 25.733086c16.798553 16.476624 26.23587 38.823715 26.23587 62.125183l0 0c0 48.52278 -40.104004 87.85826 -89.574814 87.85826l0 0c-49.470795 0 -89.57481 -39.33548 -89.57481 -87.85826z" fill-rule="nonzero"></path></g></svg>

